<mxfile host="Electron" modified="2023-08-29T13:20:29.242Z" agent="Mozilla/5.0 (X11; Linux x86_64) AppleWebKit/537.36 (KHTML, like Gecko) draw.io/21.6.5 Chrome/114.0.5735.243 Electron/25.3.1 Safari/537.36" etag="NOmqW9XA0HO2YPIjFcq8" version="21.6.5" type="device" pages="2">
  <diagram id="wjQxqehvLgfrqQK-P7TG" name="常见迷宫">
    <mxGraphModel dx="703" dy="437" grid="1" gridSize="10" guides="1" tooltips="1" connect="1" arrows="1" fold="1" page="1" pageScale="1" pageWidth="827" pageHeight="1169" math="0" shadow="0">
      <root>
        <mxCell id="0" />
        <mxCell id="1" parent="0" />
        <mxCell id="z-mLQNFcOlR_aI0fGseh-1" style="edgeStyle=orthogonalEdgeStyle;rounded=0;orthogonalLoop=1;jettySize=auto;html=1;exitX=0.5;exitY=1;exitDx=0;exitDy=0;entryX=0.5;entryY=0;entryDx=0;entryDy=0;endArrow=none;endFill=0;" edge="1" parent="1" source="z-mLQNFcOlR_aI0fGseh-2" target="z-mLQNFcOlR_aI0fGseh-13">
          <mxGeometry relative="1" as="geometry" />
        </mxCell>
        <mxCell id="z-mLQNFcOlR_aI0fGseh-2" value="23" style="ellipse;whiteSpace=wrap;html=1;aspect=fixed;" vertex="1" parent="1">
          <mxGeometry x="50" y="170" width="20" height="20" as="geometry" />
        </mxCell>
        <mxCell id="z-mLQNFcOlR_aI0fGseh-3" style="edgeStyle=orthogonalEdgeStyle;rounded=0;orthogonalLoop=1;jettySize=auto;html=1;exitX=0.5;exitY=1;exitDx=0;exitDy=0;entryX=0.5;entryY=0;entryDx=0;entryDy=0;endArrow=none;endFill=0;" edge="1" parent="1" source="z-mLQNFcOlR_aI0fGseh-4" target="z-mLQNFcOlR_aI0fGseh-23">
          <mxGeometry relative="1" as="geometry" />
        </mxCell>
        <mxCell id="z-mLQNFcOlR_aI0fGseh-4" value="2" style="ellipse;whiteSpace=wrap;html=1;aspect=fixed;" vertex="1" parent="1">
          <mxGeometry x="130" y="50" width="20" height="20" as="geometry" />
        </mxCell>
        <mxCell id="z-mLQNFcOlR_aI0fGseh-5" style="edgeStyle=orthogonalEdgeStyle;rounded=0;orthogonalLoop=1;jettySize=auto;html=1;exitX=1;exitY=0.5;exitDx=0;exitDy=0;entryX=0;entryY=0.5;entryDx=0;entryDy=0;endArrow=none;endFill=0;" edge="1" parent="1" source="z-mLQNFcOlR_aI0fGseh-6" target="z-mLQNFcOlR_aI0fGseh-10">
          <mxGeometry relative="1" as="geometry" />
        </mxCell>
        <mxCell id="z-mLQNFcOlR_aI0fGseh-6" value="62" style="ellipse;whiteSpace=wrap;html=1;aspect=fixed;" vertex="1" parent="1">
          <mxGeometry x="50" y="410" width="20" height="20" as="geometry" />
        </mxCell>
        <mxCell id="z-mLQNFcOlR_aI0fGseh-7" style="edgeStyle=orthogonalEdgeStyle;rounded=0;orthogonalLoop=1;jettySize=auto;html=1;exitX=0.5;exitY=1;exitDx=0;exitDy=0;endArrow=none;endFill=0;" edge="1" parent="1" source="z-mLQNFcOlR_aI0fGseh-8" target="z-mLQNFcOlR_aI0fGseh-32">
          <mxGeometry relative="1" as="geometry" />
        </mxCell>
        <mxCell id="z-mLQNFcOlR_aI0fGseh-8" value="38" style="ellipse;whiteSpace=wrap;html=1;aspect=fixed;" vertex="1" parent="1">
          <mxGeometry x="90" y="250" width="20" height="20" as="geometry" />
        </mxCell>
        <mxCell id="z-mLQNFcOlR_aI0fGseh-9" style="edgeStyle=orthogonalEdgeStyle;rounded=0;orthogonalLoop=1;jettySize=auto;html=1;exitX=0.5;exitY=0;exitDx=0;exitDy=0;entryX=0.5;entryY=1;entryDx=0;entryDy=0;endArrow=none;endFill=0;" edge="1" parent="1" source="z-mLQNFcOlR_aI0fGseh-10" target="z-mLQNFcOlR_aI0fGseh-39">
          <mxGeometry relative="1" as="geometry" />
        </mxCell>
        <mxCell id="z-mLQNFcOlR_aI0fGseh-10" value="63" style="ellipse;whiteSpace=wrap;html=1;aspect=fixed;" vertex="1" parent="1">
          <mxGeometry x="130" y="410" width="20" height="20" as="geometry" />
        </mxCell>
        <mxCell id="z-mLQNFcOlR_aI0fGseh-11" value="56" style="ellipse;whiteSpace=wrap;html=1;aspect=fixed;" vertex="1" parent="1">
          <mxGeometry x="50" y="370" width="20" height="20" as="geometry" />
        </mxCell>
        <mxCell id="z-mLQNFcOlR_aI0fGseh-12" style="edgeStyle=orthogonalEdgeStyle;rounded=0;orthogonalLoop=1;jettySize=auto;html=1;exitX=1;exitY=0.5;exitDx=0;exitDy=0;entryX=0;entryY=0.5;entryDx=0;entryDy=0;endArrow=none;endFill=0;" edge="1" parent="1" source="z-mLQNFcOlR_aI0fGseh-13" target="z-mLQNFcOlR_aI0fGseh-8">
          <mxGeometry relative="1" as="geometry" />
        </mxCell>
        <mxCell id="z-mLQNFcOlR_aI0fGseh-13" value="37" style="ellipse;whiteSpace=wrap;html=1;aspect=fixed;" vertex="1" parent="1">
          <mxGeometry x="50" y="250" width="20" height="20" as="geometry" />
        </mxCell>
        <mxCell id="z-mLQNFcOlR_aI0fGseh-14" style="edgeStyle=orthogonalEdgeStyle;rounded=0;orthogonalLoop=1;jettySize=auto;html=1;exitX=1;exitY=0.5;exitDx=0;exitDy=0;entryX=0;entryY=0.5;entryDx=0;entryDy=0;endArrow=none;endFill=0;" edge="1" parent="1" source="z-mLQNFcOlR_aI0fGseh-15" target="z-mLQNFcOlR_aI0fGseh-27">
          <mxGeometry relative="1" as="geometry">
            <mxPoint x="120" y="140.31034482758628" as="targetPoint" />
          </mxGeometry>
        </mxCell>
        <mxCell id="z-mLQNFcOlR_aI0fGseh-15" value="15" style="ellipse;whiteSpace=wrap;html=1;aspect=fixed;" vertex="1" parent="1">
          <mxGeometry x="50" y="130" width="20" height="20" as="geometry" />
        </mxCell>
        <mxCell id="z-mLQNFcOlR_aI0fGseh-16" style="edgeStyle=orthogonalEdgeStyle;rounded=0;orthogonalLoop=1;jettySize=auto;html=1;exitX=0.5;exitY=1;exitDx=0;exitDy=0;entryX=0.5;entryY=0;entryDx=0;entryDy=0;endArrow=none;endFill=0;" edge="1" parent="1" source="z-mLQNFcOlR_aI0fGseh-17" target="z-mLQNFcOlR_aI0fGseh-15">
          <mxGeometry relative="1" as="geometry" />
        </mxCell>
        <mxCell id="z-mLQNFcOlR_aI0fGseh-17" value="8" style="ellipse;whiteSpace=wrap;html=1;aspect=fixed;" vertex="1" parent="1">
          <mxGeometry x="50" y="90" width="20" height="20" as="geometry" />
        </mxCell>
        <mxCell id="z-mLQNFcOlR_aI0fGseh-18" style="edgeStyle=orthogonalEdgeStyle;rounded=0;orthogonalLoop=1;jettySize=auto;html=1;exitX=1;exitY=0.5;exitDx=0;exitDy=0;endArrow=none;endFill=0;" edge="1" parent="1" source="z-mLQNFcOlR_aI0fGseh-19" target="z-mLQNFcOlR_aI0fGseh-22">
          <mxGeometry relative="1" as="geometry" />
        </mxCell>
        <mxCell id="z-mLQNFcOlR_aI0fGseh-19" value="0" style="ellipse;whiteSpace=wrap;html=1;aspect=fixed;" vertex="1" parent="1">
          <mxGeometry x="50" y="50" width="20" height="20" as="geometry" />
        </mxCell>
        <mxCell id="z-mLQNFcOlR_aI0fGseh-20" style="edgeStyle=orthogonalEdgeStyle;rounded=0;orthogonalLoop=1;jettySize=auto;html=1;exitX=1;exitY=0.5;exitDx=0;exitDy=0;entryX=0;entryY=0.5;entryDx=0;entryDy=0;endArrow=none;endFill=0;" edge="1" parent="1" source="z-mLQNFcOlR_aI0fGseh-22" target="z-mLQNFcOlR_aI0fGseh-4">
          <mxGeometry relative="1" as="geometry" />
        </mxCell>
        <mxCell id="z-mLQNFcOlR_aI0fGseh-21" style="edgeStyle=orthogonalEdgeStyle;rounded=0;orthogonalLoop=1;jettySize=auto;html=1;exitX=0.5;exitY=1;exitDx=0;exitDy=0;entryX=0.5;entryY=0;entryDx=0;entryDy=0;endArrow=none;endFill=0;" edge="1" parent="1" source="z-mLQNFcOlR_aI0fGseh-22" target="z-mLQNFcOlR_aI0fGseh-25">
          <mxGeometry relative="1" as="geometry" />
        </mxCell>
        <mxCell id="z-mLQNFcOlR_aI0fGseh-22" value="1" style="ellipse;whiteSpace=wrap;html=1;aspect=fixed;" vertex="1" parent="1">
          <mxGeometry x="90" y="50" width="20" height="20" as="geometry" />
        </mxCell>
        <mxCell id="z-mLQNFcOlR_aI0fGseh-23" value="10" style="ellipse;whiteSpace=wrap;html=1;aspect=fixed;" vertex="1" parent="1">
          <mxGeometry x="130" y="90" width="20" height="20" as="geometry" />
        </mxCell>
        <mxCell id="z-mLQNFcOlR_aI0fGseh-24" style="edgeStyle=orthogonalEdgeStyle;rounded=0;orthogonalLoop=1;jettySize=auto;html=1;exitX=0;exitY=0.5;exitDx=0;exitDy=0;entryX=1;entryY=0.5;entryDx=0;entryDy=0;endArrow=none;endFill=0;" edge="1" parent="1" source="z-mLQNFcOlR_aI0fGseh-25" target="z-mLQNFcOlR_aI0fGseh-17">
          <mxGeometry relative="1" as="geometry" />
        </mxCell>
        <mxCell id="z-mLQNFcOlR_aI0fGseh-25" value="9" style="ellipse;whiteSpace=wrap;html=1;aspect=fixed;" vertex="1" parent="1">
          <mxGeometry x="90" y="90" width="20" height="20" as="geometry" />
        </mxCell>
        <mxCell id="z-mLQNFcOlR_aI0fGseh-26" style="edgeStyle=orthogonalEdgeStyle;rounded=0;orthogonalLoop=1;jettySize=auto;html=1;exitX=0.5;exitY=1;exitDx=0;exitDy=0;entryX=0.5;entryY=0;entryDx=0;entryDy=0;endArrow=none;endFill=0;" edge="1" parent="1" source="z-mLQNFcOlR_aI0fGseh-27" target="z-mLQNFcOlR_aI0fGseh-30">
          <mxGeometry relative="1" as="geometry" />
        </mxCell>
        <mxCell id="z-mLQNFcOlR_aI0fGseh-27" value="16" style="ellipse;whiteSpace=wrap;html=1;aspect=fixed;" vertex="1" parent="1">
          <mxGeometry x="130" y="130" width="20" height="20" as="geometry" />
        </mxCell>
        <mxCell id="z-mLQNFcOlR_aI0fGseh-28" style="edgeStyle=orthogonalEdgeStyle;rounded=0;orthogonalLoop=1;jettySize=auto;html=1;exitX=0;exitY=0.5;exitDx=0;exitDy=0;entryX=1;entryY=0.5;entryDx=0;entryDy=0;endArrow=none;endFill=0;" edge="1" parent="1" source="z-mLQNFcOlR_aI0fGseh-30" target="z-mLQNFcOlR_aI0fGseh-2">
          <mxGeometry relative="1" as="geometry" />
        </mxCell>
        <mxCell id="z-mLQNFcOlR_aI0fGseh-29" style="edgeStyle=orthogonalEdgeStyle;rounded=0;orthogonalLoop=1;jettySize=auto;html=1;exitX=1;exitY=0.5;exitDx=0;exitDy=0;endArrow=none;endFill=0;" edge="1" parent="1" source="z-mLQNFcOlR_aI0fGseh-30" target="z-mLQNFcOlR_aI0fGseh-46">
          <mxGeometry relative="1" as="geometry" />
        </mxCell>
        <mxCell id="z-mLQNFcOlR_aI0fGseh-30" value="25" style="ellipse;whiteSpace=wrap;html=1;aspect=fixed;" vertex="1" parent="1">
          <mxGeometry x="130" y="170" width="20" height="20" as="geometry" />
        </mxCell>
        <mxCell id="z-mLQNFcOlR_aI0fGseh-31" style="edgeStyle=orthogonalEdgeStyle;rounded=0;orthogonalLoop=1;jettySize=auto;html=1;exitX=0;exitY=0.5;exitDx=0;exitDy=0;entryX=1;entryY=0.5;entryDx=0;entryDy=0;endArrow=none;endFill=0;" edge="1" parent="1" source="z-mLQNFcOlR_aI0fGseh-32" target="z-mLQNFcOlR_aI0fGseh-11">
          <mxGeometry relative="1" as="geometry" />
        </mxCell>
        <mxCell id="z-mLQNFcOlR_aI0fGseh-32" value="57" style="ellipse;whiteSpace=wrap;html=1;aspect=fixed;" vertex="1" parent="1">
          <mxGeometry x="90" y="370" width="20" height="20" as="geometry" />
        </mxCell>
        <mxCell id="z-mLQNFcOlR_aI0fGseh-33" style="edgeStyle=orthogonalEdgeStyle;rounded=0;orthogonalLoop=1;jettySize=auto;html=1;exitX=0.5;exitY=1;exitDx=0;exitDy=0;entryX=0.5;entryY=0;entryDx=0;entryDy=0;endArrow=none;endFill=0;" edge="1" parent="1" source="z-mLQNFcOlR_aI0fGseh-34" target="z-mLQNFcOlR_aI0fGseh-11">
          <mxGeometry relative="1" as="geometry" />
        </mxCell>
        <mxCell id="z-mLQNFcOlR_aI0fGseh-34" value="43" style="ellipse;whiteSpace=wrap;html=1;aspect=fixed;" vertex="1" parent="1">
          <mxGeometry x="50" y="290" width="20" height="20" as="geometry" />
        </mxCell>
        <mxCell id="z-mLQNFcOlR_aI0fGseh-35" value="24" style="ellipse;whiteSpace=wrap;html=1;aspect=fixed;" vertex="1" parent="1">
          <mxGeometry x="90" y="170" width="20" height="20" as="geometry" />
        </mxCell>
        <mxCell id="z-mLQNFcOlR_aI0fGseh-36" style="edgeStyle=orthogonalEdgeStyle;rounded=0;orthogonalLoop=1;jettySize=auto;html=1;exitX=0.5;exitY=0;exitDx=0;exitDy=0;entryX=0.5;entryY=1;entryDx=0;entryDy=0;endArrow=none;endFill=0;" edge="1" parent="1" source="z-mLQNFcOlR_aI0fGseh-37" target="z-mLQNFcOlR_aI0fGseh-35">
          <mxGeometry relative="1" as="geometry" />
        </mxCell>
        <mxCell id="z-mLQNFcOlR_aI0fGseh-37" value="33" style="ellipse;whiteSpace=wrap;html=1;aspect=fixed;" vertex="1" parent="1">
          <mxGeometry x="90" y="210" width="20" height="20" as="geometry" />
        </mxCell>
        <mxCell id="z-mLQNFcOlR_aI0fGseh-38" style="edgeStyle=orthogonalEdgeStyle;rounded=0;orthogonalLoop=1;jettySize=auto;html=1;exitX=0;exitY=0.5;exitDx=0;exitDy=0;entryX=1;entryY=0.5;entryDx=0;entryDy=0;endArrow=none;endFill=0;" edge="1" parent="1" source="z-mLQNFcOlR_aI0fGseh-39" target="z-mLQNFcOlR_aI0fGseh-37">
          <mxGeometry relative="1" as="geometry" />
        </mxCell>
        <mxCell id="z-mLQNFcOlR_aI0fGseh-39" value="34" style="ellipse;whiteSpace=wrap;html=1;aspect=fixed;" vertex="1" parent="1">
          <mxGeometry x="130" y="210" width="20" height="20" as="geometry" />
        </mxCell>
        <mxCell id="z-mLQNFcOlR_aI0fGseh-40" style="edgeStyle=orthogonalEdgeStyle;rounded=0;orthogonalLoop=1;jettySize=auto;html=1;exitX=0.5;exitY=1;exitDx=0;exitDy=0;endArrow=none;endFill=0;fillColor=#dae8fc;strokeColor=#6c8ebf;strokeWidth=2;" edge="1" parent="1" source="z-mLQNFcOlR_aI0fGseh-42" target="z-mLQNFcOlR_aI0fGseh-44">
          <mxGeometry relative="1" as="geometry" />
        </mxCell>
        <mxCell id="z-mLQNFcOlR_aI0fGseh-41" style="edgeStyle=orthogonalEdgeStyle;rounded=0;orthogonalLoop=1;jettySize=auto;html=1;exitX=1;exitY=0.5;exitDx=0;exitDy=0;entryX=0;entryY=0.5;entryDx=0;entryDy=0;endArrow=none;endFill=0;fillColor=#dae8fc;strokeColor=#6c8ebf;strokeWidth=2;" edge="1" parent="1" source="z-mLQNFcOlR_aI0fGseh-42" target="z-mLQNFcOlR_aI0fGseh-54">
          <mxGeometry relative="1" as="geometry" />
        </mxCell>
        <mxCell id="z-mLQNFcOlR_aI0fGseh-42" value="3" style="ellipse;whiteSpace=wrap;html=1;aspect=fixed;" vertex="1" parent="1">
          <mxGeometry x="170" y="50" width="20" height="20" as="geometry" />
        </mxCell>
        <mxCell id="z-mLQNFcOlR_aI0fGseh-43" style="edgeStyle=orthogonalEdgeStyle;rounded=0;orthogonalLoop=1;jettySize=auto;html=1;exitX=1;exitY=0.5;exitDx=0;exitDy=0;entryX=0;entryY=0.5;entryDx=0;entryDy=0;endArrow=none;endFill=0;fillColor=#dae8fc;strokeColor=#6c8ebf;strokeWidth=2;" edge="1" parent="1" source="z-mLQNFcOlR_aI0fGseh-44" target="z-mLQNFcOlR_aI0fGseh-58">
          <mxGeometry relative="1" as="geometry" />
        </mxCell>
        <mxCell id="z-mLQNFcOlR_aI0fGseh-44" value="17" style="ellipse;whiteSpace=wrap;html=1;aspect=fixed;" vertex="1" parent="1">
          <mxGeometry x="170" y="130" width="20" height="20" as="geometry" />
        </mxCell>
        <mxCell id="z-mLQNFcOlR_aI0fGseh-45" style="edgeStyle=orthogonalEdgeStyle;rounded=0;orthogonalLoop=1;jettySize=auto;html=1;exitX=0.5;exitY=1;exitDx=0;exitDy=0;entryX=0.5;entryY=0;entryDx=0;entryDy=0;endArrow=none;endFill=0;" edge="1" parent="1" source="z-mLQNFcOlR_aI0fGseh-86" target="z-mLQNFcOlR_aI0fGseh-48">
          <mxGeometry relative="1" as="geometry" />
        </mxCell>
        <mxCell id="z-mLQNFcOlR_aI0fGseh-144" style="edgeStyle=orthogonalEdgeStyle;rounded=0;orthogonalLoop=1;jettySize=auto;html=1;exitX=0.5;exitY=1;exitDx=0;exitDy=0;entryX=0.5;entryY=0;entryDx=0;entryDy=0;endArrow=none;endFill=0;" edge="1" parent="1" source="z-mLQNFcOlR_aI0fGseh-46" target="z-mLQNFcOlR_aI0fGseh-86">
          <mxGeometry relative="1" as="geometry" />
        </mxCell>
        <mxCell id="z-mLQNFcOlR_aI0fGseh-46" value="26" style="ellipse;whiteSpace=wrap;html=1;aspect=fixed;" vertex="1" parent="1">
          <mxGeometry x="170" y="170" width="20" height="20" as="geometry" />
        </mxCell>
        <mxCell id="z-mLQNFcOlR_aI0fGseh-47" style="edgeStyle=orthogonalEdgeStyle;rounded=0;orthogonalLoop=1;jettySize=auto;html=1;exitX=1;exitY=0.5;exitDx=0;exitDy=0;entryX=0;entryY=0.5;entryDx=0;entryDy=0;endArrow=none;endFill=0;" edge="1" parent="1" source="z-mLQNFcOlR_aI0fGseh-48" target="z-mLQNFcOlR_aI0fGseh-63">
          <mxGeometry relative="1" as="geometry" />
        </mxCell>
        <mxCell id="z-mLQNFcOlR_aI0fGseh-48" value="50" style="ellipse;whiteSpace=wrap;html=1;aspect=fixed;" vertex="1" parent="1">
          <mxGeometry x="170" y="330" width="20" height="20" as="geometry" />
        </mxCell>
        <mxCell id="z-mLQNFcOlR_aI0fGseh-49" style="edgeStyle=orthogonalEdgeStyle;rounded=0;orthogonalLoop=1;jettySize=auto;html=1;exitX=1;exitY=0.5;exitDx=0;exitDy=0;endArrow=none;endFill=0;strokeColor=#6c8ebf;strokeWidth=2;fillColor=#dae8fc;" edge="1" parent="1" source="z-mLQNFcOlR_aI0fGseh-50" target="z-mLQNFcOlR_aI0fGseh-75">
          <mxGeometry relative="1" as="geometry" />
        </mxCell>
        <mxCell id="z-mLQNFcOlR_aI0fGseh-50" value="58" style="ellipse;whiteSpace=wrap;html=1;aspect=fixed;" vertex="1" parent="1">
          <mxGeometry x="170" y="370" width="20" height="20" as="geometry" />
        </mxCell>
        <mxCell id="z-mLQNFcOlR_aI0fGseh-51" style="edgeStyle=orthogonalEdgeStyle;rounded=0;orthogonalLoop=1;jettySize=auto;html=1;exitX=0.5;exitY=0;exitDx=0;exitDy=0;entryX=0.5;entryY=1;entryDx=0;entryDy=0;endArrow=none;endFill=0;strokeColor=#6c8ebf;strokeWidth=2;fillColor=#dae8fc;" edge="1" parent="1" source="z-mLQNFcOlR_aI0fGseh-53" target="z-mLQNFcOlR_aI0fGseh-50">
          <mxGeometry relative="1" as="geometry" />
        </mxCell>
        <mxCell id="z-mLQNFcOlR_aI0fGseh-52" style="edgeStyle=orthogonalEdgeStyle;rounded=0;orthogonalLoop=1;jettySize=auto;html=1;exitX=1;exitY=0.5;exitDx=0;exitDy=0;entryX=0;entryY=0.5;entryDx=0;entryDy=0;endArrow=none;endFill=0;strokeColor=#6c8ebf;strokeWidth=2;fillColor=#dae8fc;" edge="1" parent="1" source="z-mLQNFcOlR_aI0fGseh-53" target="z-mLQNFcOlR_aI0fGseh-77">
          <mxGeometry relative="1" as="geometry" />
        </mxCell>
        <mxCell id="z-mLQNFcOlR_aI0fGseh-53" value="64" style="ellipse;whiteSpace=wrap;html=1;aspect=fixed;" vertex="1" parent="1">
          <mxGeometry x="170" y="410" width="20" height="20" as="geometry" />
        </mxCell>
        <mxCell id="z-mLQNFcOlR_aI0fGseh-54" value="4" style="ellipse;whiteSpace=wrap;html=1;aspect=fixed;fillColor=#dae8fc;strokeColor=#6c8ebf;" vertex="1" parent="1">
          <mxGeometry x="210" y="50" width="20" height="20" as="geometry" />
        </mxCell>
        <mxCell id="z-mLQNFcOlR_aI0fGseh-55" style="edgeStyle=orthogonalEdgeStyle;rounded=0;orthogonalLoop=1;jettySize=auto;html=1;exitX=1;exitY=0.5;exitDx=0;exitDy=0;endArrow=none;endFill=0;fillColor=#dae8fc;strokeColor=#6c8ebf;strokeWidth=2;" edge="1" parent="1" source="z-mLQNFcOlR_aI0fGseh-56" target="z-mLQNFcOlR_aI0fGseh-83">
          <mxGeometry relative="1" as="geometry" />
        </mxCell>
        <mxCell id="z-mLQNFcOlR_aI0fGseh-56" value="11" style="ellipse;whiteSpace=wrap;html=1;aspect=fixed;" vertex="1" parent="1">
          <mxGeometry x="210" y="90" width="20" height="20" as="geometry" />
        </mxCell>
        <mxCell id="z-mLQNFcOlR_aI0fGseh-57" style="edgeStyle=orthogonalEdgeStyle;rounded=0;orthogonalLoop=1;jettySize=auto;html=1;exitX=0.5;exitY=0;exitDx=0;exitDy=0;entryX=0.5;entryY=1;entryDx=0;entryDy=0;endArrow=none;endFill=0;fillColor=#dae8fc;strokeColor=#6c8ebf;strokeWidth=2;" edge="1" parent="1" source="z-mLQNFcOlR_aI0fGseh-58" target="z-mLQNFcOlR_aI0fGseh-56">
          <mxGeometry relative="1" as="geometry" />
        </mxCell>
        <mxCell id="z-mLQNFcOlR_aI0fGseh-58" value="18" style="ellipse;whiteSpace=wrap;html=1;aspect=fixed;" vertex="1" parent="1">
          <mxGeometry x="210" y="130" width="20" height="20" as="geometry" />
        </mxCell>
        <mxCell id="z-mLQNFcOlR_aI0fGseh-59" style="edgeStyle=orthogonalEdgeStyle;rounded=0;orthogonalLoop=1;jettySize=auto;html=1;exitX=0.5;exitY=1;exitDx=0;exitDy=0;entryX=0.5;entryY=0;entryDx=0;entryDy=0;endArrow=none;endFill=0;" edge="1" parent="1" source="z-mLQNFcOlR_aI0fGseh-60" target="z-mLQNFcOlR_aI0fGseh-87">
          <mxGeometry relative="1" as="geometry" />
        </mxCell>
        <mxCell id="z-mLQNFcOlR_aI0fGseh-60" value="27" style="ellipse;whiteSpace=wrap;html=1;aspect=fixed;" vertex="1" parent="1">
          <mxGeometry x="210" y="170" width="20" height="20" as="geometry" />
        </mxCell>
        <mxCell id="z-mLQNFcOlR_aI0fGseh-61" value="44" style="ellipse;whiteSpace=wrap;html=1;aspect=fixed;" vertex="1" parent="1">
          <mxGeometry x="210" y="290" width="20" height="20" as="geometry" />
        </mxCell>
        <mxCell id="z-mLQNFcOlR_aI0fGseh-62" style="edgeStyle=orthogonalEdgeStyle;rounded=0;orthogonalLoop=1;jettySize=auto;html=1;exitX=0.5;exitY=0;exitDx=0;exitDy=0;entryX=0.5;entryY=1;entryDx=0;entryDy=0;endArrow=none;endFill=0;" edge="1" parent="1" source="z-mLQNFcOlR_aI0fGseh-63" target="z-mLQNFcOlR_aI0fGseh-66">
          <mxGeometry relative="1" as="geometry" />
        </mxCell>
        <mxCell id="z-mLQNFcOlR_aI0fGseh-63" value="51" style="ellipse;whiteSpace=wrap;html=1;aspect=fixed;" vertex="1" parent="1">
          <mxGeometry x="250" y="330" width="20" height="20" as="geometry" />
        </mxCell>
        <mxCell id="z-mLQNFcOlR_aI0fGseh-64" style="edgeStyle=orthogonalEdgeStyle;rounded=0;orthogonalLoop=1;jettySize=auto;html=1;exitX=0;exitY=0.5;exitDx=0;exitDy=0;entryX=1;entryY=0.5;entryDx=0;entryDy=0;endArrow=none;endFill=0;" edge="1" parent="1" source="z-mLQNFcOlR_aI0fGseh-66" target="z-mLQNFcOlR_aI0fGseh-61">
          <mxGeometry relative="1" as="geometry" />
        </mxCell>
        <mxCell id="z-mLQNFcOlR_aI0fGseh-65" style="edgeStyle=orthogonalEdgeStyle;rounded=0;orthogonalLoop=1;jettySize=auto;html=1;exitX=1;exitY=0.5;exitDx=0;exitDy=0;entryX=0;entryY=0.5;entryDx=0;entryDy=0;endArrow=none;endFill=0;" edge="1" parent="1" source="z-mLQNFcOlR_aI0fGseh-66" target="z-mLQNFcOlR_aI0fGseh-68">
          <mxGeometry relative="1" as="geometry" />
        </mxCell>
        <mxCell id="z-mLQNFcOlR_aI0fGseh-66" value="45" style="ellipse;whiteSpace=wrap;html=1;aspect=fixed;" vertex="1" parent="1">
          <mxGeometry x="250" y="290" width="20" height="20" as="geometry" />
        </mxCell>
        <mxCell id="z-mLQNFcOlR_aI0fGseh-67" style="edgeStyle=orthogonalEdgeStyle;rounded=0;orthogonalLoop=1;jettySize=auto;html=1;exitX=0.5;exitY=1;exitDx=0;exitDy=0;entryX=0.5;entryY=0;entryDx=0;entryDy=0;endArrow=none;endFill=0;" edge="1" parent="1" source="z-mLQNFcOlR_aI0fGseh-68" target="z-mLQNFcOlR_aI0fGseh-70">
          <mxGeometry relative="1" as="geometry" />
        </mxCell>
        <mxCell id="z-mLQNFcOlR_aI0fGseh-68" value="46" style="ellipse;whiteSpace=wrap;html=1;aspect=fixed;" vertex="1" parent="1">
          <mxGeometry x="290" y="290" width="20" height="20" as="geometry" />
        </mxCell>
        <mxCell id="z-mLQNFcOlR_aI0fGseh-69" style="edgeStyle=orthogonalEdgeStyle;rounded=0;orthogonalLoop=1;jettySize=auto;html=1;exitX=1;exitY=0.5;exitDx=0;exitDy=0;entryX=0;entryY=0.5;entryDx=0;entryDy=0;endArrow=none;endFill=0;" edge="1" parent="1" source="z-mLQNFcOlR_aI0fGseh-70" target="z-mLQNFcOlR_aI0fGseh-72">
          <mxGeometry relative="1" as="geometry" />
        </mxCell>
        <mxCell id="z-mLQNFcOlR_aI0fGseh-70" value="52" style="ellipse;whiteSpace=wrap;html=1;aspect=fixed;" vertex="1" parent="1">
          <mxGeometry x="290" y="330" width="20" height="20" as="geometry" />
        </mxCell>
        <mxCell id="z-mLQNFcOlR_aI0fGseh-71" style="edgeStyle=orthogonalEdgeStyle;rounded=0;orthogonalLoop=1;jettySize=auto;html=1;exitX=0.5;exitY=0;exitDx=0;exitDy=0;entryX=0.5;entryY=1;entryDx=0;entryDy=0;endArrow=none;endFill=0;" edge="1" parent="1" source="z-mLQNFcOlR_aI0fGseh-72" target="z-mLQNFcOlR_aI0fGseh-73">
          <mxGeometry relative="1" as="geometry" />
        </mxCell>
        <mxCell id="z-mLQNFcOlR_aI0fGseh-72" value="53" style="ellipse;whiteSpace=wrap;html=1;aspect=fixed;" vertex="1" parent="1">
          <mxGeometry x="330" y="330" width="20" height="20" as="geometry" />
        </mxCell>
        <mxCell id="z-mLQNFcOlR_aI0fGseh-73" value="47" style="ellipse;whiteSpace=wrap;html=1;aspect=fixed;" vertex="1" parent="1">
          <mxGeometry x="330" y="290" width="20" height="20" as="geometry" />
        </mxCell>
        <mxCell id="z-mLQNFcOlR_aI0fGseh-74" style="edgeStyle=orthogonalEdgeStyle;rounded=0;orthogonalLoop=1;jettySize=auto;html=1;exitX=0.5;exitY=1;exitDx=0;exitDy=0;entryX=0.5;entryY=0;entryDx=0;entryDy=0;endArrow=none;endFill=0;fillColor=#dae8fc;strokeColor=#6c8ebf;strokeWidth=2;" edge="1" parent="1" source="z-mLQNFcOlR_aI0fGseh-75" target="z-mLQNFcOlR_aI0fGseh-79">
          <mxGeometry relative="1" as="geometry" />
        </mxCell>
        <mxCell id="z-mLQNFcOlR_aI0fGseh-75" value="59" style="ellipse;whiteSpace=wrap;html=1;aspect=fixed;" vertex="1" parent="1">
          <mxGeometry x="330" y="370" width="20" height="20" as="geometry" />
        </mxCell>
        <mxCell id="z-mLQNFcOlR_aI0fGseh-76" style="edgeStyle=orthogonalEdgeStyle;rounded=0;orthogonalLoop=1;jettySize=auto;html=1;exitX=1;exitY=0.5;exitDx=0;exitDy=0;entryX=0;entryY=0.5;entryDx=0;entryDy=0;endArrow=none;endFill=0;fillColor=#dae8fc;strokeColor=#6c8ebf;strokeWidth=2;" edge="1" parent="1" source="z-mLQNFcOlR_aI0fGseh-77" target="z-mLQNFcOlR_aI0fGseh-79">
          <mxGeometry relative="1" as="geometry" />
        </mxCell>
        <mxCell id="z-mLQNFcOlR_aI0fGseh-77" value="65" style="ellipse;whiteSpace=wrap;html=1;aspect=fixed;fillColor=#fff2cc;strokeColor=#d6b656;" vertex="1" parent="1">
          <mxGeometry x="250" y="410" width="20" height="20" as="geometry" />
        </mxCell>
        <mxCell id="z-mLQNFcOlR_aI0fGseh-78" style="edgeStyle=orthogonalEdgeStyle;rounded=0;orthogonalLoop=1;jettySize=auto;html=1;exitX=1;exitY=0.5;exitDx=0;exitDy=0;entryX=0;entryY=0.5;entryDx=0;entryDy=0;endArrow=none;endFill=0;fillColor=#dae8fc;strokeColor=#6c8ebf;strokeWidth=2;" edge="1" parent="1" source="z-mLQNFcOlR_aI0fGseh-79" target="z-mLQNFcOlR_aI0fGseh-81">
          <mxGeometry relative="1" as="geometry" />
        </mxCell>
        <mxCell id="z-mLQNFcOlR_aI0fGseh-79" value="66" style="ellipse;whiteSpace=wrap;html=1;aspect=fixed;" vertex="1" parent="1">
          <mxGeometry x="330" y="410" width="20" height="20" as="geometry" />
        </mxCell>
        <mxCell id="z-mLQNFcOlR_aI0fGseh-80" style="edgeStyle=orthogonalEdgeStyle;rounded=0;orthogonalLoop=1;jettySize=auto;html=1;exitX=0.5;exitY=0;exitDx=0;exitDy=0;entryX=0.5;entryY=1;entryDx=0;entryDy=0;endArrow=none;endFill=0;fillColor=#dae8fc;strokeColor=#6c8ebf;strokeWidth=2;" edge="1" parent="1" source="z-mLQNFcOlR_aI0fGseh-81" target="z-mLQNFcOlR_aI0fGseh-91">
          <mxGeometry relative="1" as="geometry" />
        </mxCell>
        <mxCell id="z-mLQNFcOlR_aI0fGseh-81" value="67" style="ellipse;whiteSpace=wrap;html=1;aspect=fixed;" vertex="1" parent="1">
          <mxGeometry x="410" y="410" width="20" height="20" as="geometry" />
        </mxCell>
        <mxCell id="z-mLQNFcOlR_aI0fGseh-82" style="edgeStyle=orthogonalEdgeStyle;rounded=0;orthogonalLoop=1;jettySize=auto;html=1;exitX=0.5;exitY=0;exitDx=0;exitDy=0;entryX=0.5;entryY=1;entryDx=0;entryDy=0;endArrow=none;endFill=0;fillColor=#dae8fc;strokeColor=#6c8ebf;strokeWidth=2;" edge="1" parent="1" source="z-mLQNFcOlR_aI0fGseh-83" target="z-mLQNFcOlR_aI0fGseh-100">
          <mxGeometry relative="1" as="geometry" />
        </mxCell>
        <mxCell id="z-mLQNFcOlR_aI0fGseh-83" value="12" style="ellipse;whiteSpace=wrap;html=1;aspect=fixed;" vertex="1" parent="1">
          <mxGeometry x="250" y="90" width="20" height="20" as="geometry" />
        </mxCell>
        <mxCell id="z-mLQNFcOlR_aI0fGseh-85" style="edgeStyle=orthogonalEdgeStyle;rounded=0;orthogonalLoop=1;jettySize=auto;html=1;exitX=1;exitY=0.5;exitDx=0;exitDy=0;entryX=0;entryY=0.5;entryDx=0;entryDy=0;endArrow=none;endFill=0;" edge="1" parent="1" source="z-mLQNFcOlR_aI0fGseh-86" target="z-mLQNFcOlR_aI0fGseh-87">
          <mxGeometry relative="1" as="geometry" />
        </mxCell>
        <mxCell id="z-mLQNFcOlR_aI0fGseh-86" value="39" style="ellipse;whiteSpace=wrap;html=1;aspect=fixed;" vertex="1" parent="1">
          <mxGeometry x="170" y="250" width="20" height="20" as="geometry" />
        </mxCell>
        <mxCell id="z-mLQNFcOlR_aI0fGseh-87" value="40" style="ellipse;whiteSpace=wrap;html=1;aspect=fixed;" vertex="1" parent="1">
          <mxGeometry x="210" y="250" width="20" height="20" as="geometry" />
        </mxCell>
        <mxCell id="z-mLQNFcOlR_aI0fGseh-88" style="edgeStyle=orthogonalEdgeStyle;rounded=0;orthogonalLoop=1;jettySize=auto;html=1;exitX=0.5;exitY=0;exitDx=0;exitDy=0;entryX=0.5;entryY=1;entryDx=0;entryDy=0;endArrow=none;endFill=0;fillColor=#dae8fc;strokeColor=#6c8ebf;strokeWidth=2;" edge="1" parent="1" source="z-mLQNFcOlR_aI0fGseh-89" target="z-mLQNFcOlR_aI0fGseh-96">
          <mxGeometry relative="1" as="geometry" />
        </mxCell>
        <mxCell id="z-mLQNFcOlR_aI0fGseh-89" value="60" style="ellipse;whiteSpace=wrap;html=1;aspect=fixed;" vertex="1" parent="1">
          <mxGeometry x="370" y="370" width="20" height="20" as="geometry" />
        </mxCell>
        <mxCell id="z-mLQNFcOlR_aI0fGseh-90" style="edgeStyle=orthogonalEdgeStyle;rounded=0;orthogonalLoop=1;jettySize=auto;html=1;exitX=0;exitY=0.5;exitDx=0;exitDy=0;entryX=1;entryY=0.5;entryDx=0;entryDy=0;endArrow=none;endFill=0;fillColor=#dae8fc;strokeColor=#6c8ebf;strokeWidth=2;" edge="1" parent="1" source="z-mLQNFcOlR_aI0fGseh-91" target="z-mLQNFcOlR_aI0fGseh-89">
          <mxGeometry relative="1" as="geometry" />
        </mxCell>
        <mxCell id="z-mLQNFcOlR_aI0fGseh-91" value="61" style="ellipse;whiteSpace=wrap;html=1;aspect=fixed;" vertex="1" parent="1">
          <mxGeometry x="410" y="370" width="20" height="20" as="geometry" />
        </mxCell>
        <mxCell id="z-mLQNFcOlR_aI0fGseh-92" value="48" style="ellipse;whiteSpace=wrap;html=1;aspect=fixed;" vertex="1" parent="1">
          <mxGeometry x="370" y="290" width="20" height="20" as="geometry" />
        </mxCell>
        <mxCell id="z-mLQNFcOlR_aI0fGseh-93" value="55" style="ellipse;whiteSpace=wrap;html=1;aspect=fixed;" vertex="1" parent="1">
          <mxGeometry x="410" y="330" width="20" height="20" as="geometry" />
        </mxCell>
        <mxCell id="z-mLQNFcOlR_aI0fGseh-94" style="edgeStyle=orthogonalEdgeStyle;rounded=0;orthogonalLoop=1;jettySize=auto;html=1;exitX=0.5;exitY=0;exitDx=0;exitDy=0;entryX=0.5;entryY=1;entryDx=0;entryDy=0;endArrow=none;endFill=0;fillColor=#dae8fc;strokeColor=#6c8ebf;strokeWidth=2;" edge="1" parent="1" source="z-mLQNFcOlR_aI0fGseh-96" target="z-mLQNFcOlR_aI0fGseh-92">
          <mxGeometry relative="1" as="geometry" />
        </mxCell>
        <mxCell id="z-mLQNFcOlR_aI0fGseh-95" style="edgeStyle=orthogonalEdgeStyle;rounded=0;orthogonalLoop=1;jettySize=auto;html=1;exitX=1;exitY=0.5;exitDx=0;exitDy=0;entryX=0;entryY=0.5;entryDx=0;entryDy=0;endArrow=none;endFill=0;" edge="1" parent="1" source="z-mLQNFcOlR_aI0fGseh-96" target="z-mLQNFcOlR_aI0fGseh-93">
          <mxGeometry relative="1" as="geometry" />
        </mxCell>
        <mxCell id="z-mLQNFcOlR_aI0fGseh-96" value="54" style="ellipse;whiteSpace=wrap;html=1;aspect=fixed;" vertex="1" parent="1">
          <mxGeometry x="370" y="330" width="20" height="20" as="geometry" />
        </mxCell>
        <mxCell id="z-mLQNFcOlR_aI0fGseh-97" style="edgeStyle=orthogonalEdgeStyle;rounded=0;orthogonalLoop=1;jettySize=auto;html=1;exitX=0.5;exitY=1;exitDx=0;exitDy=0;entryX=0.5;entryY=0;entryDx=0;entryDy=0;endArrow=none;endFill=0;fillColor=#dae8fc;strokeColor=#6c8ebf;strokeWidth=2;" edge="1" parent="1" source="z-mLQNFcOlR_aI0fGseh-98" target="z-mLQNFcOlR_aI0fGseh-135">
          <mxGeometry relative="1" as="geometry" />
        </mxCell>
        <mxCell id="z-mLQNFcOlR_aI0fGseh-98" value="42" style="ellipse;whiteSpace=wrap;html=1;aspect=fixed;" vertex="1" parent="1">
          <mxGeometry x="410" y="250" width="20" height="20" as="geometry" />
        </mxCell>
        <mxCell id="z-mLQNFcOlR_aI0fGseh-99" style="edgeStyle=orthogonalEdgeStyle;rounded=0;orthogonalLoop=1;jettySize=auto;html=1;exitX=1;exitY=0.5;exitDx=0;exitDy=0;entryX=0;entryY=0.5;entryDx=0;entryDy=0;endArrow=none;endFill=0;fillColor=#dae8fc;strokeColor=#6c8ebf;strokeWidth=2;" edge="1" parent="1" source="z-mLQNFcOlR_aI0fGseh-100" target="z-mLQNFcOlR_aI0fGseh-102">
          <mxGeometry relative="1" as="geometry" />
        </mxCell>
        <mxCell id="z-mLQNFcOlR_aI0fGseh-100" value="5" style="ellipse;whiteSpace=wrap;html=1;aspect=fixed;" vertex="1" parent="1">
          <mxGeometry x="250" y="50" width="20" height="20" as="geometry" />
        </mxCell>
        <mxCell id="z-mLQNFcOlR_aI0fGseh-101" style="edgeStyle=orthogonalEdgeStyle;rounded=0;orthogonalLoop=1;jettySize=auto;html=1;exitX=0.5;exitY=1;exitDx=0;exitDy=0;entryX=0.5;entryY=0;entryDx=0;entryDy=0;endArrow=none;endFill=0;fillColor=#dae8fc;strokeColor=#6c8ebf;strokeWidth=2;" edge="1" parent="1" source="z-mLQNFcOlR_aI0fGseh-102" target="z-mLQNFcOlR_aI0fGseh-107">
          <mxGeometry relative="1" as="geometry">
            <mxPoint x="379.8620689655172" y="110" as="targetPoint" />
          </mxGeometry>
        </mxCell>
        <mxCell id="z-mLQNFcOlR_aI0fGseh-102" value="6" style="ellipse;whiteSpace=wrap;html=1;aspect=fixed;" vertex="1" parent="1">
          <mxGeometry x="370" y="50" width="20" height="20" as="geometry" />
        </mxCell>
        <mxCell id="z-mLQNFcOlR_aI0fGseh-103" style="edgeStyle=orthogonalEdgeStyle;rounded=0;orthogonalLoop=1;jettySize=auto;html=1;exitX=0.5;exitY=1;exitDx=0;exitDy=0;entryX=0.5;entryY=0;entryDx=0;entryDy=0;endArrow=none;endFill=0;" edge="1" parent="1" source="z-mLQNFcOlR_aI0fGseh-104" target="z-mLQNFcOlR_aI0fGseh-108">
          <mxGeometry relative="1" as="geometry" />
        </mxCell>
        <mxCell id="z-mLQNFcOlR_aI0fGseh-104" value="7" style="ellipse;whiteSpace=wrap;html=1;aspect=fixed;" vertex="1" parent="1">
          <mxGeometry x="410" y="50" width="20" height="20" as="geometry" />
        </mxCell>
        <mxCell id="z-mLQNFcOlR_aI0fGseh-105" style="edgeStyle=orthogonalEdgeStyle;rounded=0;orthogonalLoop=1;jettySize=auto;html=1;exitX=1;exitY=0.5;exitDx=0;exitDy=0;entryX=0;entryY=0.5;entryDx=0;entryDy=0;endArrow=none;endFill=0;" edge="1" parent="1" source="z-mLQNFcOlR_aI0fGseh-107" target="z-mLQNFcOlR_aI0fGseh-108">
          <mxGeometry relative="1" as="geometry" />
        </mxCell>
        <mxCell id="z-mLQNFcOlR_aI0fGseh-106" style="edgeStyle=orthogonalEdgeStyle;rounded=0;orthogonalLoop=1;jettySize=auto;html=1;exitX=0.5;exitY=1;exitDx=0;exitDy=0;entryX=0.5;entryY=0;entryDx=0;entryDy=0;endArrow=none;endFill=0;fillColor=#dae8fc;strokeColor=#6c8ebf;strokeWidth=2;" edge="1" parent="1" source="z-mLQNFcOlR_aI0fGseh-107" target="z-mLQNFcOlR_aI0fGseh-120">
          <mxGeometry relative="1" as="geometry" />
        </mxCell>
        <mxCell id="z-mLQNFcOlR_aI0fGseh-107" value="21" style="ellipse;whiteSpace=wrap;html=1;aspect=fixed;" vertex="1" parent="1">
          <mxGeometry x="370" y="130" width="20" height="20" as="geometry" />
        </mxCell>
        <mxCell id="z-mLQNFcOlR_aI0fGseh-108" value="22" style="ellipse;whiteSpace=wrap;html=1;aspect=fixed;" vertex="1" parent="1">
          <mxGeometry x="410" y="130" width="20" height="20" as="geometry" />
        </mxCell>
        <mxCell id="z-mLQNFcOlR_aI0fGseh-109" style="edgeStyle=orthogonalEdgeStyle;rounded=0;orthogonalLoop=1;jettySize=auto;html=1;exitX=0.5;exitY=1;exitDx=0;exitDy=0;entryX=0.5;entryY=0;entryDx=0;entryDy=0;endArrow=none;endFill=0;fillColor=#dae8fc;strokeColor=#6c8ebf;strokeWidth=2;" edge="1" parent="1" source="z-mLQNFcOlR_aI0fGseh-110" target="z-mLQNFcOlR_aI0fGseh-122">
          <mxGeometry relative="1" as="geometry" />
        </mxCell>
        <mxCell id="z-mLQNFcOlR_aI0fGseh-110" value="32" style="ellipse;whiteSpace=wrap;html=1;aspect=fixed;" vertex="1" parent="1">
          <mxGeometry x="410" y="170" width="20" height="20" as="geometry" />
        </mxCell>
        <mxCell id="z-mLQNFcOlR_aI0fGseh-111" style="edgeStyle=orthogonalEdgeStyle;rounded=0;orthogonalLoop=1;jettySize=auto;html=1;exitX=1;exitY=0.5;exitDx=0;exitDy=0;entryX=0;entryY=0.5;entryDx=0;entryDy=0;endArrow=none;endFill=0;fillColor=#dae8fc;strokeColor=#6c8ebf;strokeWidth=2;" edge="1" parent="1" source="z-mLQNFcOlR_aI0fGseh-112" target="z-mLQNFcOlR_aI0fGseh-126">
          <mxGeometry relative="1" as="geometry" />
        </mxCell>
        <mxCell id="z-mLQNFcOlR_aI0fGseh-112" value="29" style="ellipse;whiteSpace=wrap;html=1;aspect=fixed;" vertex="1" parent="1">
          <mxGeometry x="290" y="170" width="20" height="20" as="geometry" />
        </mxCell>
        <mxCell id="z-mLQNFcOlR_aI0fGseh-113" style="edgeStyle=orthogonalEdgeStyle;rounded=0;orthogonalLoop=1;jettySize=auto;html=1;exitX=0;exitY=0.5;exitDx=0;exitDy=0;entryX=1;entryY=0.5;entryDx=0;entryDy=0;endArrow=none;endFill=0;fillColor=#dae8fc;strokeColor=#6c8ebf;strokeWidth=2;" edge="1" parent="1" source="z-mLQNFcOlR_aI0fGseh-114" target="z-mLQNFcOlR_aI0fGseh-128">
          <mxGeometry relative="1" as="geometry" />
        </mxCell>
        <mxCell id="z-mLQNFcOlR_aI0fGseh-114" value="20" style="ellipse;whiteSpace=wrap;html=1;aspect=fixed;" vertex="1" parent="1">
          <mxGeometry x="290" y="130" width="20" height="20" as="geometry" />
        </mxCell>
        <mxCell id="z-mLQNFcOlR_aI0fGseh-115" style="edgeStyle=orthogonalEdgeStyle;rounded=0;orthogonalLoop=1;jettySize=auto;html=1;exitX=0;exitY=0.5;exitDx=0;exitDy=0;entryX=1;entryY=0.5;entryDx=0;entryDy=0;endArrow=none;endFill=0;fillColor=#dae8fc;strokeColor=#6c8ebf;strokeWidth=2;" edge="1" parent="1" source="z-mLQNFcOlR_aI0fGseh-116" target="z-mLQNFcOlR_aI0fGseh-118">
          <mxGeometry relative="1" as="geometry" />
        </mxCell>
        <mxCell id="z-mLQNFcOlR_aI0fGseh-116" value="14" style="ellipse;whiteSpace=wrap;html=1;aspect=fixed;" vertex="1" parent="1">
          <mxGeometry x="330" y="90" width="20" height="20" as="geometry" />
        </mxCell>
        <mxCell id="z-mLQNFcOlR_aI0fGseh-117" style="edgeStyle=orthogonalEdgeStyle;rounded=0;orthogonalLoop=1;jettySize=auto;html=1;exitX=0.5;exitY=1;exitDx=0;exitDy=0;entryX=0.5;entryY=0;entryDx=0;entryDy=0;endArrow=none;endFill=0;fillColor=#dae8fc;strokeColor=#6c8ebf;strokeWidth=2;" edge="1" parent="1" source="z-mLQNFcOlR_aI0fGseh-118" target="z-mLQNFcOlR_aI0fGseh-114">
          <mxGeometry relative="1" as="geometry" />
        </mxCell>
        <mxCell id="z-mLQNFcOlR_aI0fGseh-118" value="13" style="ellipse;whiteSpace=wrap;html=1;aspect=fixed;" vertex="1" parent="1">
          <mxGeometry x="290" y="90" width="20" height="20" as="geometry" />
        </mxCell>
        <mxCell id="z-mLQNFcOlR_aI0fGseh-119" style="edgeStyle=orthogonalEdgeStyle;rounded=0;orthogonalLoop=1;jettySize=auto;html=1;exitX=1;exitY=0.5;exitDx=0;exitDy=0;entryX=0;entryY=0.5;entryDx=0;entryDy=0;endArrow=none;endFill=0;fillColor=#dae8fc;strokeColor=#6c8ebf;strokeWidth=2;" edge="1" parent="1" source="z-mLQNFcOlR_aI0fGseh-120" target="z-mLQNFcOlR_aI0fGseh-110">
          <mxGeometry relative="1" as="geometry" />
        </mxCell>
        <mxCell id="z-mLQNFcOlR_aI0fGseh-120" value="31" style="ellipse;whiteSpace=wrap;html=1;aspect=fixed;" vertex="1" parent="1">
          <mxGeometry x="370" y="170" width="20" height="20" as="geometry" />
        </mxCell>
        <mxCell id="z-mLQNFcOlR_aI0fGseh-121" style="edgeStyle=orthogonalEdgeStyle;rounded=0;orthogonalLoop=1;jettySize=auto;html=1;exitX=0;exitY=0.5;exitDx=0;exitDy=0;entryX=1;entryY=0.5;entryDx=0;entryDy=0;endArrow=none;endFill=0;fillColor=#dae8fc;strokeColor=#6c8ebf;strokeWidth=2;" edge="1" parent="1" source="z-mLQNFcOlR_aI0fGseh-122" target="z-mLQNFcOlR_aI0fGseh-124">
          <mxGeometry relative="1" as="geometry" />
        </mxCell>
        <mxCell id="z-mLQNFcOlR_aI0fGseh-122" value="36" style="ellipse;whiteSpace=wrap;html=1;aspect=fixed;" vertex="1" parent="1">
          <mxGeometry x="410" y="210" width="20" height="20" as="geometry" />
        </mxCell>
        <mxCell id="z-mLQNFcOlR_aI0fGseh-123" style="edgeStyle=orthogonalEdgeStyle;rounded=0;orthogonalLoop=1;jettySize=auto;html=1;exitX=0.5;exitY=0;exitDx=0;exitDy=0;entryX=0.5;entryY=1;entryDx=0;entryDy=0;endArrow=none;endFill=0;fillColor=#dae8fc;strokeColor=#6c8ebf;strokeWidth=2;" edge="1" parent="1" source="z-mLQNFcOlR_aI0fGseh-124" target="z-mLQNFcOlR_aI0fGseh-112">
          <mxGeometry relative="1" as="geometry" />
        </mxCell>
        <mxCell id="z-mLQNFcOlR_aI0fGseh-124" value="35" style="ellipse;whiteSpace=wrap;html=1;aspect=fixed;" vertex="1" parent="1">
          <mxGeometry x="290" y="210" width="20" height="20" as="geometry" />
        </mxCell>
        <mxCell id="z-mLQNFcOlR_aI0fGseh-125" style="edgeStyle=orthogonalEdgeStyle;rounded=0;orthogonalLoop=1;jettySize=auto;html=1;exitX=0.5;exitY=0;exitDx=0;exitDy=0;entryX=0.5;entryY=1;entryDx=0;entryDy=0;endArrow=none;endFill=0;fillColor=#dae8fc;strokeColor=#6c8ebf;strokeWidth=2;" edge="1" parent="1" source="z-mLQNFcOlR_aI0fGseh-126" target="z-mLQNFcOlR_aI0fGseh-116">
          <mxGeometry relative="1" as="geometry" />
        </mxCell>
        <mxCell id="z-mLQNFcOlR_aI0fGseh-126" value="30" style="ellipse;whiteSpace=wrap;html=1;aspect=fixed;" vertex="1" parent="1">
          <mxGeometry x="330" y="170" width="20" height="20" as="geometry" />
        </mxCell>
        <mxCell id="z-mLQNFcOlR_aI0fGseh-127" style="edgeStyle=orthogonalEdgeStyle;rounded=0;orthogonalLoop=1;jettySize=auto;html=1;exitX=0.5;exitY=1;exitDx=0;exitDy=0;entryX=0.5;entryY=0;entryDx=0;entryDy=0;endArrow=none;endFill=0;fillColor=#dae8fc;strokeColor=#6c8ebf;strokeWidth=2;" edge="1" parent="1" source="z-mLQNFcOlR_aI0fGseh-128" target="z-mLQNFcOlR_aI0fGseh-133">
          <mxGeometry relative="1" as="geometry" />
        </mxCell>
        <mxCell id="z-mLQNFcOlR_aI0fGseh-128" value="19" style="ellipse;whiteSpace=wrap;html=1;aspect=fixed;" vertex="1" parent="1">
          <mxGeometry x="250" y="130" width="20" height="20" as="geometry" />
        </mxCell>
        <mxCell id="z-mLQNFcOlR_aI0fGseh-129" style="edgeStyle=orthogonalEdgeStyle;rounded=0;orthogonalLoop=1;jettySize=auto;html=1;exitX=1;exitY=0.5;exitDx=0;exitDy=0;endArrow=none;endFill=0;fillColor=#dae8fc;strokeColor=#6c8ebf;strokeWidth=2;" edge="1" parent="1" source="z-mLQNFcOlR_aI0fGseh-130">
          <mxGeometry relative="1" as="geometry">
            <mxPoint x="410" y="260" as="targetPoint" />
          </mxGeometry>
        </mxCell>
        <mxCell id="z-mLQNFcOlR_aI0fGseh-130" value="41" style="ellipse;whiteSpace=wrap;html=1;aspect=fixed;" vertex="1" parent="1">
          <mxGeometry x="250" y="250" width="20" height="20" as="geometry" />
        </mxCell>
        <mxCell id="z-mLQNFcOlR_aI0fGseh-131" style="edgeStyle=orthogonalEdgeStyle;rounded=0;orthogonalLoop=1;jettySize=auto;html=1;exitX=0;exitY=0.5;exitDx=0;exitDy=0;entryX=1;entryY=0.5;entryDx=0;entryDy=0;endArrow=none;endFill=0;" edge="1" parent="1" source="z-mLQNFcOlR_aI0fGseh-133" target="z-mLQNFcOlR_aI0fGseh-60">
          <mxGeometry relative="1" as="geometry" />
        </mxCell>
        <mxCell id="z-mLQNFcOlR_aI0fGseh-132" style="edgeStyle=orthogonalEdgeStyle;rounded=0;orthogonalLoop=1;jettySize=auto;html=1;exitX=0.5;exitY=1;exitDx=0;exitDy=0;entryX=0.5;entryY=0;entryDx=0;entryDy=0;endArrow=none;endFill=0;fillColor=#dae8fc;strokeColor=#6c8ebf;strokeWidth=2;" edge="1" parent="1" source="z-mLQNFcOlR_aI0fGseh-133" target="z-mLQNFcOlR_aI0fGseh-130">
          <mxGeometry relative="1" as="geometry" />
        </mxCell>
        <mxCell id="z-mLQNFcOlR_aI0fGseh-133" value="28" style="ellipse;whiteSpace=wrap;html=1;aspect=fixed;" vertex="1" parent="1">
          <mxGeometry x="250" y="170" width="20" height="20" as="geometry" />
        </mxCell>
        <mxCell id="z-mLQNFcOlR_aI0fGseh-134" style="edgeStyle=orthogonalEdgeStyle;rounded=0;orthogonalLoop=1;jettySize=auto;html=1;exitX=0;exitY=0.5;exitDx=0;exitDy=0;entryX=1;entryY=0.5;entryDx=0;entryDy=0;endArrow=none;endFill=0;fillColor=#dae8fc;strokeColor=#6c8ebf;strokeWidth=2;" edge="1" parent="1" source="z-mLQNFcOlR_aI0fGseh-135" target="z-mLQNFcOlR_aI0fGseh-92">
          <mxGeometry relative="1" as="geometry" />
        </mxCell>
        <mxCell id="z-mLQNFcOlR_aI0fGseh-135" value="49" style="ellipse;whiteSpace=wrap;html=1;aspect=fixed;" vertex="1" parent="1">
          <mxGeometry x="410" y="290" width="20" height="20" as="geometry" />
        </mxCell>
        <mxCell id="z-mLQNFcOlR_aI0fGseh-136" value="0" style="text;html=1;align=center;verticalAlign=middle;resizable=0;points=[];autosize=1;strokeColor=none;fillColor=none;fontColor=#007FFF;" vertex="1" parent="1">
          <mxGeometry x="45" y="10" width="30" height="30" as="geometry" />
        </mxCell>
        <mxCell id="z-mLQNFcOlR_aI0fGseh-137" value="9" style="text;html=1;align=center;verticalAlign=middle;resizable=0;points=[];autosize=1;strokeColor=none;fillColor=none;fontColor=#007FFF;" vertex="1" parent="1">
          <mxGeometry x="405" y="10" width="30" height="30" as="geometry" />
        </mxCell>
        <mxCell id="z-mLQNFcOlR_aI0fGseh-138" value="0" style="text;html=1;align=center;verticalAlign=middle;resizable=0;points=[];autosize=1;strokeColor=none;fillColor=none;fontColor=#007FFF;" vertex="1" parent="1">
          <mxGeometry x="10" y="45" width="30" height="30" as="geometry" />
        </mxCell>
        <mxCell id="z-mLQNFcOlR_aI0fGseh-139" value="9" style="text;html=1;align=center;verticalAlign=middle;resizable=0;points=[];autosize=1;strokeColor=none;fillColor=none;fontColor=#007FFF;" vertex="1" parent="1">
          <mxGeometry x="10" y="405" width="30" height="30" as="geometry" />
        </mxCell>
      </root>
    </mxGraphModel>
  </diagram>
  <diagram id="Bs2tLbBZgQ66WKuDpXie" name="LeetCode.490">
    <mxGraphModel dx="703" dy="437" grid="1" gridSize="10" guides="1" tooltips="1" connect="1" arrows="1" fold="1" page="1" pageScale="1" pageWidth="827" pageHeight="1169" math="0" shadow="0">
      <root>
        <mxCell id="0" />
        <mxCell id="1" parent="0" />
        <mxCell id="e45w9gaj-uZmX68GpF5k-1" value="LeetCode.490.迷宫" style="text;html=1;strokeColor=none;fillColor=none;align=left;verticalAlign=middle;whiteSpace=wrap;rounded=0;" vertex="1" parent="1">
          <mxGeometry x="20" y="10" width="140" height="30" as="geometry" />
        </mxCell>
        <mxCell id="e45w9gaj-uZmX68GpF5k-4" style="edgeStyle=orthogonalEdgeStyle;rounded=0;orthogonalLoop=1;jettySize=auto;html=1;exitX=0.5;exitY=1;exitDx=0;exitDy=0;endArrow=classicThin;endFill=1;endSize=2;startSize=2;" edge="1" parent="1" source="e45w9gaj-uZmX68GpF5k-2" target="e45w9gaj-uZmX68GpF5k-3">
          <mxGeometry relative="1" as="geometry" />
        </mxCell>
        <mxCell id="e45w9gaj-uZmX68GpF5k-7" style="edgeStyle=orthogonalEdgeStyle;rounded=0;orthogonalLoop=1;jettySize=auto;html=1;exitX=1;exitY=0.5;exitDx=0;exitDy=0;entryX=0;entryY=0.5;entryDx=0;entryDy=0;endArrow=classicThin;endFill=1;endSize=2;startSize=2;" edge="1" parent="1" source="e45w9gaj-uZmX68GpF5k-2" target="e45w9gaj-uZmX68GpF5k-6">
          <mxGeometry relative="1" as="geometry" />
        </mxCell>
        <mxCell id="e45w9gaj-uZmX68GpF5k-2" value="0" style="ellipse;whiteSpace=wrap;html=1;aspect=fixed;" vertex="1" parent="1">
          <mxGeometry x="20" y="40" width="20" height="20" as="geometry" />
        </mxCell>
        <mxCell id="e45w9gaj-uZmX68GpF5k-5" style="edgeStyle=orthogonalEdgeStyle;rounded=0;orthogonalLoop=1;jettySize=auto;html=1;exitX=0.5;exitY=0;exitDx=0;exitDy=0;entryX=0.5;entryY=1;entryDx=0;entryDy=0;endArrow=classicThin;endFill=1;endSize=2;startSize=2;" edge="1" parent="1" source="e45w9gaj-uZmX68GpF5k-3" target="e45w9gaj-uZmX68GpF5k-2">
          <mxGeometry relative="1" as="geometry" />
        </mxCell>
        <mxCell id="e45w9gaj-uZmX68GpF5k-35" style="edgeStyle=orthogonalEdgeStyle;rounded=0;orthogonalLoop=1;jettySize=auto;html=1;exitX=1;exitY=1;exitDx=0;exitDy=0;entryX=0;entryY=1;entryDx=0;entryDy=0;curved=1;endArrow=classicThin;endFill=1;endSize=2;startSize=2;" edge="1" parent="1" source="e45w9gaj-uZmX68GpF5k-3" target="e45w9gaj-uZmX68GpF5k-28">
          <mxGeometry relative="1" as="geometry">
            <Array as="points">
              <mxPoint x="37" y="150" />
              <mxPoint x="103" y="150" />
            </Array>
          </mxGeometry>
        </mxCell>
        <mxCell id="e45w9gaj-uZmX68GpF5k-3" value="8" style="ellipse;whiteSpace=wrap;html=1;aspect=fixed;" vertex="1" parent="1">
          <mxGeometry x="20" y="120" width="20" height="20" as="geometry" />
        </mxCell>
        <mxCell id="e45w9gaj-uZmX68GpF5k-8" style="edgeStyle=orthogonalEdgeStyle;rounded=0;orthogonalLoop=1;jettySize=auto;html=1;exitX=0;exitY=0.5;exitDx=0;exitDy=0;entryX=1;entryY=0.5;entryDx=0;entryDy=0;endArrow=classicThin;endFill=1;endSize=2;startSize=2;" edge="1" parent="1" source="e45w9gaj-uZmX68GpF5k-6" target="e45w9gaj-uZmX68GpF5k-2">
          <mxGeometry relative="1" as="geometry" />
        </mxCell>
        <mxCell id="e45w9gaj-uZmX68GpF5k-30" style="edgeStyle=orthogonalEdgeStyle;rounded=0;orthogonalLoop=1;jettySize=auto;html=1;exitX=0.5;exitY=1;exitDx=0;exitDy=0;endArrow=classicThin;endFill=1;endSize=2;startSize=2;" edge="1" parent="1" source="e45w9gaj-uZmX68GpF5k-6" target="e45w9gaj-uZmX68GpF5k-29">
          <mxGeometry relative="1" as="geometry" />
        </mxCell>
        <mxCell id="e45w9gaj-uZmX68GpF5k-6" value="1" style="ellipse;whiteSpace=wrap;html=1;aspect=fixed;" vertex="1" parent="1">
          <mxGeometry x="60" y="40" width="20" height="20" as="geometry" />
        </mxCell>
        <mxCell id="e45w9gaj-uZmX68GpF5k-12" style="edgeStyle=orthogonalEdgeStyle;rounded=0;orthogonalLoop=1;jettySize=auto;html=1;exitX=0.5;exitY=1;exitDx=0;exitDy=0;entryX=0.5;entryY=0;entryDx=0;entryDy=0;endArrow=classicThin;endFill=1;endSize=2;startSize=2;" edge="1" parent="1" source="e45w9gaj-uZmX68GpF5k-9" target="e45w9gaj-uZmX68GpF5k-11">
          <mxGeometry relative="1" as="geometry" />
        </mxCell>
        <mxCell id="e45w9gaj-uZmX68GpF5k-14" style="edgeStyle=orthogonalEdgeStyle;rounded=0;orthogonalLoop=1;jettySize=auto;html=1;exitX=0;exitY=0.5;exitDx=0;exitDy=0;entryX=1;entryY=0.5;entryDx=0;entryDy=0;endArrow=classicThin;endFill=1;endSize=2;startSize=2;" edge="1" parent="1" source="e45w9gaj-uZmX68GpF5k-9" target="e45w9gaj-uZmX68GpF5k-10">
          <mxGeometry relative="1" as="geometry" />
        </mxCell>
        <mxCell id="e45w9gaj-uZmX68GpF5k-9" value="3" style="ellipse;whiteSpace=wrap;html=1;aspect=fixed;fillColor=#dae8fc;strokeColor=#6c8ebf;" vertex="1" parent="1">
          <mxGeometry x="180" y="40" width="20" height="20" as="geometry" />
        </mxCell>
        <mxCell id="e45w9gaj-uZmX68GpF5k-15" style="edgeStyle=orthogonalEdgeStyle;rounded=0;orthogonalLoop=1;jettySize=auto;html=1;exitX=1;exitY=0.5;exitDx=0;exitDy=0;endArrow=classicThin;endFill=1;endSize=2;startSize=2;" edge="1" parent="1" source="e45w9gaj-uZmX68GpF5k-10">
          <mxGeometry relative="1" as="geometry">
            <mxPoint x="180" y="50" as="targetPoint" />
          </mxGeometry>
        </mxCell>
        <mxCell id="e45w9gaj-uZmX68GpF5k-17" style="edgeStyle=orthogonalEdgeStyle;rounded=0;orthogonalLoop=1;jettySize=auto;html=1;exitX=0.5;exitY=1;exitDx=0;exitDy=0;entryX=0.5;entryY=0;entryDx=0;entryDy=0;endArrow=classicThin;endFill=1;endSize=2;startSize=2;" edge="1" parent="1" source="e45w9gaj-uZmX68GpF5k-10" target="e45w9gaj-uZmX68GpF5k-16">
          <mxGeometry relative="1" as="geometry" />
        </mxCell>
        <mxCell id="e45w9gaj-uZmX68GpF5k-10" value="2" style="ellipse;whiteSpace=wrap;html=1;aspect=fixed;" vertex="1" parent="1">
          <mxGeometry x="140" y="40" width="20" height="20" as="geometry" />
        </mxCell>
        <mxCell id="e45w9gaj-uZmX68GpF5k-13" style="edgeStyle=orthogonalEdgeStyle;rounded=0;orthogonalLoop=1;jettySize=auto;html=1;exitX=0.5;exitY=0;exitDx=0;exitDy=0;entryX=0.5;entryY=1;entryDx=0;entryDy=0;endArrow=classicThin;endFill=1;endSize=2;startSize=2;" edge="1" parent="1" source="e45w9gaj-uZmX68GpF5k-11" target="e45w9gaj-uZmX68GpF5k-9">
          <mxGeometry relative="1" as="geometry" />
        </mxCell>
        <mxCell id="e45w9gaj-uZmX68GpF5k-11" value="11" style="ellipse;whiteSpace=wrap;html=1;aspect=fixed;" vertex="1" parent="1">
          <mxGeometry x="180" y="120" width="20" height="20" as="geometry" />
        </mxCell>
        <mxCell id="e45w9gaj-uZmX68GpF5k-18" style="edgeStyle=orthogonalEdgeStyle;rounded=0;orthogonalLoop=1;jettySize=auto;html=1;exitX=0.5;exitY=0;exitDx=0;exitDy=0;entryX=0.5;entryY=1;entryDx=0;entryDy=0;endArrow=classicThin;endFill=1;endSize=2;startSize=2;" edge="1" parent="1" source="e45w9gaj-uZmX68GpF5k-16" target="e45w9gaj-uZmX68GpF5k-10">
          <mxGeometry relative="1" as="geometry" />
        </mxCell>
        <mxCell id="e45w9gaj-uZmX68GpF5k-20" style="edgeStyle=orthogonalEdgeStyle;rounded=0;orthogonalLoop=1;jettySize=auto;html=1;exitX=0;exitY=0.5;exitDx=0;exitDy=0;entryX=1;entryY=0.5;entryDx=0;entryDy=0;endArrow=classicThin;endFill=1;endSize=2;startSize=2;" edge="1" parent="1" source="e45w9gaj-uZmX68GpF5k-16" target="e45w9gaj-uZmX68GpF5k-19">
          <mxGeometry relative="1" as="geometry" />
        </mxCell>
        <mxCell id="e45w9gaj-uZmX68GpF5k-22" style="edgeStyle=orthogonalEdgeStyle;rounded=0;orthogonalLoop=1;jettySize=auto;html=1;exitX=1;exitY=0.5;exitDx=0;exitDy=0;entryX=0;entryY=0.5;entryDx=0;entryDy=0;endArrow=classicThin;endFill=1;endSize=2;startSize=2;" edge="1" parent="1" source="e45w9gaj-uZmX68GpF5k-16" target="e45w9gaj-uZmX68GpF5k-21">
          <mxGeometry relative="1" as="geometry" />
        </mxCell>
        <mxCell id="e45w9gaj-uZmX68GpF5k-23" style="edgeStyle=orthogonalEdgeStyle;rounded=0;orthogonalLoop=1;jettySize=auto;html=1;exitX=1;exitY=1;exitDx=0;exitDy=0;entryX=0;entryY=1;entryDx=0;entryDy=0;curved=1;endArrow=classicThin;endFill=1;endSize=2;startSize=2;" edge="1" parent="1" source="e45w9gaj-uZmX68GpF5k-19" target="e45w9gaj-uZmX68GpF5k-21">
          <mxGeometry relative="1" as="geometry">
            <Array as="points">
              <mxPoint x="57" y="110" />
              <mxPoint x="203" y="110" />
            </Array>
          </mxGeometry>
        </mxCell>
        <mxCell id="e45w9gaj-uZmX68GpF5k-26" style="rounded=0;orthogonalLoop=1;jettySize=auto;html=1;exitX=0;exitY=0;exitDx=0;exitDy=0;entryX=1;entryY=1;entryDx=0;entryDy=0;endArrow=classicThin;endFill=1;endSize=2;startSize=2;" edge="1" parent="1" source="e45w9gaj-uZmX68GpF5k-19" target="e45w9gaj-uZmX68GpF5k-2">
          <mxGeometry relative="1" as="geometry" />
        </mxCell>
        <mxCell id="e45w9gaj-uZmX68GpF5k-27" style="rounded=0;orthogonalLoop=1;jettySize=auto;html=1;exitX=0;exitY=1;exitDx=0;exitDy=0;entryX=1;entryY=0;entryDx=0;entryDy=0;endArrow=classicThin;endFill=1;endSize=2;startSize=2;" edge="1" parent="1" source="e45w9gaj-uZmX68GpF5k-19" target="e45w9gaj-uZmX68GpF5k-3">
          <mxGeometry relative="1" as="geometry" />
        </mxCell>
        <mxCell id="e45w9gaj-uZmX68GpF5k-19" value="4" style="ellipse;whiteSpace=wrap;html=1;aspect=fixed;" vertex="1" parent="1">
          <mxGeometry x="40" y="80" width="20" height="20" as="geometry" />
        </mxCell>
        <mxCell id="e45w9gaj-uZmX68GpF5k-25" style="edgeStyle=orthogonalEdgeStyle;rounded=0;orthogonalLoop=1;jettySize=auto;html=1;exitX=0;exitY=1;exitDx=0;exitDy=0;entryX=1;entryY=1;entryDx=0;entryDy=0;curved=1;endArrow=classicThin;endFill=1;endSize=2;startSize=2;" edge="1" parent="1" source="e45w9gaj-uZmX68GpF5k-21" target="e45w9gaj-uZmX68GpF5k-19">
          <mxGeometry relative="1" as="geometry">
            <Array as="points">
              <mxPoint x="203" y="110" />
              <mxPoint x="57" y="110" />
            </Array>
          </mxGeometry>
        </mxCell>
        <mxCell id="e45w9gaj-uZmX68GpF5k-21" value="7" style="ellipse;whiteSpace=wrap;html=1;aspect=fixed;" vertex="1" parent="1">
          <mxGeometry x="200" y="80" width="20" height="20" as="geometry" />
        </mxCell>
        <mxCell id="e45w9gaj-uZmX68GpF5k-34" style="edgeStyle=orthogonalEdgeStyle;rounded=0;orthogonalLoop=1;jettySize=auto;html=1;exitX=0;exitY=1;exitDx=0;exitDy=0;entryX=1;entryY=1;entryDx=0;entryDy=0;curved=1;endArrow=classicThin;endFill=1;endSize=2;startSize=2;" edge="1" parent="1" source="e45w9gaj-uZmX68GpF5k-28" target="e45w9gaj-uZmX68GpF5k-3">
          <mxGeometry relative="1" as="geometry">
            <Array as="points">
              <mxPoint x="103" y="150" />
              <mxPoint x="37" y="150" />
            </Array>
          </mxGeometry>
        </mxCell>
        <mxCell id="e45w9gaj-uZmX68GpF5k-37" style="edgeStyle=orthogonalEdgeStyle;rounded=0;orthogonalLoop=1;jettySize=auto;html=1;exitX=0.5;exitY=0;exitDx=0;exitDy=0;entryX=0.5;entryY=1;entryDx=0;entryDy=0;endArrow=classicThin;endFill=1;endSize=2;startSize=2;" edge="1" parent="1" source="e45w9gaj-uZmX68GpF5k-28" target="e45w9gaj-uZmX68GpF5k-36">
          <mxGeometry relative="1" as="geometry" />
        </mxCell>
        <mxCell id="e45w9gaj-uZmX68GpF5k-41" style="edgeStyle=orthogonalEdgeStyle;rounded=0;orthogonalLoop=1;jettySize=auto;html=1;exitX=0.5;exitY=1;exitDx=0;exitDy=0;entryX=0.5;entryY=0;entryDx=0;entryDy=0;endArrow=classicThin;endFill=1;endSize=2;startSize=2;" edge="1" parent="1" source="e45w9gaj-uZmX68GpF5k-28" target="e45w9gaj-uZmX68GpF5k-38">
          <mxGeometry relative="1" as="geometry">
            <mxPoint x="110" y="160" as="targetPoint" />
          </mxGeometry>
        </mxCell>
        <mxCell id="e45w9gaj-uZmX68GpF5k-55" style="rounded=0;orthogonalLoop=1;jettySize=auto;html=1;exitX=0;exitY=1;exitDx=0;exitDy=0;entryX=1;entryY=0;entryDx=0;entryDy=0;endSize=2;startSize=2;" edge="1" parent="1" source="e45w9gaj-uZmX68GpF5k-28" target="e45w9gaj-uZmX68GpF5k-53">
          <mxGeometry relative="1" as="geometry" />
        </mxCell>
        <mxCell id="e45w9gaj-uZmX68GpF5k-28" value="10" style="ellipse;whiteSpace=wrap;html=1;aspect=fixed;" vertex="1" parent="1">
          <mxGeometry x="100" y="120" width="20" height="20" as="geometry" />
        </mxCell>
        <mxCell id="e45w9gaj-uZmX68GpF5k-31" style="edgeStyle=orthogonalEdgeStyle;rounded=0;orthogonalLoop=1;jettySize=auto;html=1;exitX=0.5;exitY=0;exitDx=0;exitDy=0;endArrow=classicThin;endFill=1;endSize=2;startSize=2;" edge="1" parent="1" source="e45w9gaj-uZmX68GpF5k-29">
          <mxGeometry relative="1" as="geometry">
            <mxPoint x="69.85714285714289" y="60" as="targetPoint" />
          </mxGeometry>
        </mxCell>
        <mxCell id="e45w9gaj-uZmX68GpF5k-32" style="edgeStyle=orthogonalEdgeStyle;rounded=0;orthogonalLoop=1;jettySize=auto;html=1;exitX=0;exitY=0.5;exitDx=0;exitDy=0;entryX=1;entryY=0.5;entryDx=0;entryDy=0;endArrow=classicThin;endFill=1;endSize=2;startSize=2;" edge="1" parent="1" source="e45w9gaj-uZmX68GpF5k-29" target="e45w9gaj-uZmX68GpF5k-3">
          <mxGeometry relative="1" as="geometry" />
        </mxCell>
        <mxCell id="e45w9gaj-uZmX68GpF5k-33" style="edgeStyle=orthogonalEdgeStyle;rounded=0;orthogonalLoop=1;jettySize=auto;html=1;exitX=1;exitY=0.5;exitDx=0;exitDy=0;entryX=0;entryY=0.5;entryDx=0;entryDy=0;endArrow=classicThin;endFill=1;endSize=2;startSize=2;" edge="1" parent="1" source="e45w9gaj-uZmX68GpF5k-29" target="e45w9gaj-uZmX68GpF5k-28">
          <mxGeometry relative="1" as="geometry" />
        </mxCell>
        <mxCell id="e45w9gaj-uZmX68GpF5k-29" value="9" style="ellipse;whiteSpace=wrap;html=1;aspect=fixed;" vertex="1" parent="1">
          <mxGeometry x="60" y="120" width="20" height="20" as="geometry" />
        </mxCell>
        <mxCell id="e45w9gaj-uZmX68GpF5k-16" value="6" style="ellipse;whiteSpace=wrap;html=1;aspect=fixed;" vertex="1" parent="1">
          <mxGeometry x="140" y="80" width="20" height="20" as="geometry" />
        </mxCell>
        <mxCell id="e45w9gaj-uZmX68GpF5k-44" style="edgeStyle=orthogonalEdgeStyle;rounded=0;orthogonalLoop=1;jettySize=auto;html=1;exitX=1;exitY=1;exitDx=0;exitDy=0;entryX=1;entryY=0;entryDx=0;entryDy=0;curved=1;endArrow=classicThin;endFill=1;endSize=2;startSize=2;" edge="1" parent="1" source="e45w9gaj-uZmX68GpF5k-36">
          <mxGeometry relative="1" as="geometry">
            <mxPoint x="109.97" y="80" as="sourcePoint" />
            <mxPoint x="117.04106781186553" y="202.92893218813447" as="targetPoint" />
            <Array as="points">
              <mxPoint x="117" y="80" />
              <mxPoint x="130" y="80" />
              <mxPoint x="130" y="203" />
            </Array>
          </mxGeometry>
        </mxCell>
        <mxCell id="e45w9gaj-uZmX68GpF5k-56" style="rounded=0;orthogonalLoop=1;jettySize=auto;html=1;exitX=0;exitY=1;exitDx=0;exitDy=0;entryX=0.5;entryY=0;entryDx=0;entryDy=0;endSize=2;startSize=2;" edge="1" parent="1" source="e45w9gaj-uZmX68GpF5k-36" target="e45w9gaj-uZmX68GpF5k-53">
          <mxGeometry relative="1" as="geometry" />
        </mxCell>
        <mxCell id="e45w9gaj-uZmX68GpF5k-36" value="5" style="ellipse;whiteSpace=wrap;html=1;aspect=fixed;" vertex="1" parent="1">
          <mxGeometry x="100" y="60" width="20" height="20" as="geometry" />
        </mxCell>
        <mxCell id="e45w9gaj-uZmX68GpF5k-45" style="edgeStyle=orthogonalEdgeStyle;rounded=0;orthogonalLoop=1;jettySize=auto;html=1;exitX=1;exitY=0;exitDx=0;exitDy=0;entryX=1;entryY=1;entryDx=0;entryDy=0;curved=1;endArrow=classicThin;endFill=1;endSize=2;startSize=2;" edge="1" parent="1" source="e45w9gaj-uZmX68GpF5k-38" target="e45w9gaj-uZmX68GpF5k-36">
          <mxGeometry relative="1" as="geometry">
            <Array as="points">
              <mxPoint x="130" y="203" />
              <mxPoint x="130" y="77" />
            </Array>
          </mxGeometry>
        </mxCell>
        <mxCell id="e45w9gaj-uZmX68GpF5k-51" style="edgeStyle=orthogonalEdgeStyle;rounded=0;orthogonalLoop=1;jettySize=auto;html=1;exitX=1;exitY=0.5;exitDx=0;exitDy=0;entryX=0;entryY=0.5;entryDx=0;entryDy=0;endArrow=classicThin;endFill=1;endSize=2;startSize=2;" edge="1" parent="1" source="e45w9gaj-uZmX68GpF5k-38" target="e45w9gaj-uZmX68GpF5k-47">
          <mxGeometry relative="1" as="geometry" />
        </mxCell>
        <mxCell id="e45w9gaj-uZmX68GpF5k-52" style="edgeStyle=orthogonalEdgeStyle;rounded=0;orthogonalLoop=1;jettySize=auto;html=1;exitX=0;exitY=0.5;exitDx=0;exitDy=0;entryX=1;entryY=0.5;entryDx=0;entryDy=0;endArrow=classicThin;endFill=1;endSize=2;startSize=2;" edge="1" parent="1" source="e45w9gaj-uZmX68GpF5k-38" target="e45w9gaj-uZmX68GpF5k-46">
          <mxGeometry relative="1" as="geometry" />
        </mxCell>
        <mxCell id="e45w9gaj-uZmX68GpF5k-54" style="rounded=0;orthogonalLoop=1;jettySize=auto;html=1;exitX=0;exitY=0;exitDx=0;exitDy=0;entryX=1;entryY=1;entryDx=0;entryDy=0;endSize=2;startSize=2;" edge="1" parent="1" source="e45w9gaj-uZmX68GpF5k-38" target="e45w9gaj-uZmX68GpF5k-53">
          <mxGeometry relative="1" as="geometry" />
        </mxCell>
        <mxCell id="e45w9gaj-uZmX68GpF5k-38" value="13" style="ellipse;whiteSpace=wrap;html=1;aspect=fixed;" vertex="1" parent="1">
          <mxGeometry x="100" y="200" width="20" height="20" as="geometry" />
        </mxCell>
        <mxCell id="e45w9gaj-uZmX68GpF5k-49" style="edgeStyle=orthogonalEdgeStyle;rounded=0;orthogonalLoop=1;jettySize=auto;html=1;exitX=1;exitY=1;exitDx=0;exitDy=0;entryX=0;entryY=1;entryDx=0;entryDy=0;curved=1;endArrow=classicThin;endFill=1;endSize=2;startSize=2;" edge="1" parent="1" source="e45w9gaj-uZmX68GpF5k-46" target="e45w9gaj-uZmX68GpF5k-47">
          <mxGeometry relative="1" as="geometry">
            <Array as="points">
              <mxPoint x="37" y="230" />
              <mxPoint x="183" y="230" />
            </Array>
          </mxGeometry>
        </mxCell>
        <mxCell id="e45w9gaj-uZmX68GpF5k-46" value="12" style="ellipse;whiteSpace=wrap;html=1;aspect=fixed;" vertex="1" parent="1">
          <mxGeometry x="20" y="200" width="20" height="20" as="geometry" />
        </mxCell>
        <mxCell id="e45w9gaj-uZmX68GpF5k-50" style="edgeStyle=orthogonalEdgeStyle;rounded=0;orthogonalLoop=1;jettySize=auto;html=1;exitX=0;exitY=1;exitDx=0;exitDy=0;entryX=1;entryY=1;entryDx=0;entryDy=0;curved=1;endArrow=classicThin;endFill=1;endSize=2;startSize=2;" edge="1" parent="1" source="e45w9gaj-uZmX68GpF5k-47" target="e45w9gaj-uZmX68GpF5k-46">
          <mxGeometry relative="1" as="geometry">
            <Array as="points">
              <mxPoint x="183" y="230" />
              <mxPoint x="37" y="230" />
            </Array>
          </mxGeometry>
        </mxCell>
        <mxCell id="e45w9gaj-uZmX68GpF5k-47" value="14" style="ellipse;whiteSpace=wrap;html=1;aspect=fixed;" vertex="1" parent="1">
          <mxGeometry x="180" y="200" width="20" height="20" as="geometry" />
        </mxCell>
        <mxCell id="e45w9gaj-uZmX68GpF5k-53" value="15" style="ellipse;whiteSpace=wrap;html=1;aspect=fixed;fillColor=#fff2cc;strokeColor=#d6b656;" vertex="1" parent="1">
          <mxGeometry x="80" y="160" width="20" height="20" as="geometry" />
        </mxCell>
      </root>
    </mxGraphModel>
  </diagram>
</mxfile>
